<svg xmlns="http://www.w3.org/2000/svg" height="141.75" width="206.796"><g transform="translate(-3614.635 -2707.018)"><circle cx="3718.052" cy="2711.018" fill="none" r=".424" stroke="#3e4147" stroke-linecap="round" stroke-linejoin="round" stroke-width="1.366"/><path d="M3747.034 2831.943h-56.329a1.254 1.254 0 00-1.124.851l-3.241 11.505h63.46l-1.783-11.509a1.047 1.047 0 00-.983-.847z" fill="#d4d4d6"/><path d="M3617.289 2847.812H3818.4l1.642-2.968h-204.083z" fill="#a7a9ac"/><path d="M3689.057 2832.646a1.787 1.787 0 011.648-1.248h56.329a1.6 1.6 0 011.526 1.308l1.8 11.593h69.606l-25.4-34.463H3641l-24.924 34.463h69.7zm-53.589-2.117a.271.271 0 01.011-.279l11.084-17.08a.27.27 0 01.228-.124h142.458a.273.273 0 01.231.127l10.72 17.081a.272.272 0 01-.23.417h-164.263a.272.272 0 01-.239-.142z" fill="#e6e7e8"/><path d="M3646.939 2813.591l-10.73 16.535h163.268l-10.378-16.535z" fill="#d4d4d6"/><path d="M3648.275 2714.529h139.49v90.308h-139.49z" fill="#85c3e9"/><path d="M3794.428 2711.335a3.365 3.365 0 00-3.362-3.361H3644.49a3.365 3.365 0 00-3.362 3.361v97.955h153.3zm-6.118 93.775a.272.272 0 01-.272.272H3648a.273.273 0 01-.273-.272v-90.853a.273.273 0 01.273-.273h140.035a.273.273 0 01.272.273z" fill="#555556"/><g fill="none" stroke="#3e4147" stroke-linecap="round" stroke-linejoin="round" stroke-width="1.366"><path d="M3640.856 2809.563l-25.318 35.009H3820.5l-25.8-35.009zM3615.538 2844.572l1.575 3.513h201.447l1.943-3.513M3640.856 2809.563v-98.228a3.645 3.645 0 013.634-3.634h146.576a3.645 3.645 0 013.634 3.634v98.228"/><path d="M3648.003 2714.257h140.035v90.853h-140.035zM3635.707 2830.4h164.263l-10.721-17.08h-142.458zM3685.981 2844.572l3.338-11.852a1.528 1.528 0 011.386-1.05h56.329a1.318 1.318 0 011.257 1.078l1.832 11.824"/></g></g></svg>
