<svg xmlns:xlink="http://www.w3.org/1999/xlink" width="16.629ex" height="3.176ex" style="font-size: 15px; vertical-align: -0.838ex;" viewBox="0 -1006.6 7159.6 1367.4" role="img" focusable="false" xmlns="http://www.w3.org/2000/svg">
<defs>
<path stroke-width="1" id="E1-MJMATHI-73" d="M131 289Q131 321 147 354T203 415T300 442Q362 442 390 415T419 355Q419 323 402 308T364 292Q351 292 340 300T328 326Q328 342 337 354T354 372T367 378Q368 378 368 379Q368 382 361 388T336 399T297 405Q249 405 227 379T204 326Q204 301 223 291T278 274T330 259Q396 230 396 163Q396 135 385 107T352 51T289 7T195 -10Q118 -10 86 19T53 87Q53 126 74 143T118 160Q133 160 146 151T160 120Q160 94 142 76T111 58Q109 57 108 57T107 55Q108 52 115 47T146 34T201 27Q237 27 263 38T301 66T318 97T323 122Q323 150 302 164T254 181T195 196T148 231Q131 256 131 289Z"></path>
<path stroke-width="1" id="E1-MJMATHI-6F" d="M201 -11Q126 -11 80 38T34 156Q34 221 64 279T146 380Q222 441 301 441Q333 441 341 440Q354 437 367 433T402 417T438 387T464 338T476 268Q476 161 390 75T201 -11ZM121 120Q121 70 147 48T206 26Q250 26 289 58T351 142Q360 163 374 216T388 308Q388 352 370 375Q346 405 306 405Q243 405 195 347Q158 303 140 230T121 120Z"></path>
<path stroke-width="1" id="E1-MJMATHI-66" d="M118 -162Q120 -162 124 -164T135 -167T147 -168Q160 -168 171 -155T187 -126Q197 -99 221 27T267 267T289 382V385H242Q195 385 192 387Q188 390 188 397L195 425Q197 430 203 430T250 431Q298 431 298 432Q298 434 307 482T319 540Q356 705 465 705Q502 703 526 683T550 630Q550 594 529 578T487 561Q443 561 443 603Q443 622 454 636T478 657L487 662Q471 668 457 668Q445 668 434 658T419 630Q412 601 403 552T387 469T380 433Q380 431 435 431Q480 431 487 430T498 424Q499 420 496 407T491 391Q489 386 482 386T428 385H372L349 263Q301 15 282 -47Q255 -132 212 -173Q175 -205 139 -205Q107 -205 81 -186T55 -132Q55 -95 76 -78T118 -61Q162 -61 162 -103Q162 -122 151 -136T127 -157L118 -162Z"></path>
<path stroke-width="1" id="E1-MJMATHI-74" d="M26 385Q19 392 19 395Q19 399 22 411T27 425Q29 430 36 430T87 431H140L159 511Q162 522 166 540T173 566T179 586T187 603T197 615T211 624T229 626Q247 625 254 615T261 596Q261 589 252 549T232 470L222 433Q222 431 272 431H323Q330 424 330 420Q330 398 317 385H210L174 240Q135 80 135 68Q135 26 162 26Q197 26 230 60T283 144Q285 150 288 151T303 153H307Q322 153 322 145Q322 142 319 133Q314 117 301 95T267 48T216 6T155 -11Q125 -11 98 4T59 56Q57 64 57 83V101L92 241Q127 382 128 383Q128 385 77 385H26Z"></path>
<path stroke-width="1" id="E1-MJMATHI-6D" d="M21 287Q22 293 24 303T36 341T56 388T88 425T132 442T175 435T205 417T221 395T229 376L231 369Q231 367 232 367L243 378Q303 442 384 442Q401 442 415 440T441 433T460 423T475 411T485 398T493 385T497 373T500 364T502 357L510 367Q573 442 659 442Q713 442 746 415T780 336Q780 285 742 178T704 50Q705 36 709 31T724 26Q752 26 776 56T815 138Q818 149 821 151T837 153Q857 153 857 145Q857 144 853 130Q845 101 831 73T785 17T716 -10Q669 -10 648 17T627 73Q627 92 663 193T700 345Q700 404 656 404H651Q565 404 506 303L499 291L466 157Q433 26 428 16Q415 -11 385 -11Q372 -11 364 -4T353 8T350 18Q350 29 384 161L420 307Q423 322 423 345Q423 404 379 404H374Q288 404 229 303L222 291L189 157Q156 26 151 16Q138 -11 108 -11Q95 -11 87 -5T76 7T74 17Q74 30 112 181Q151 335 151 342Q154 357 154 369Q154 405 129 405Q107 405 92 377T69 316T57 280Q55 278 41 278H27Q21 284 21 287Z"></path>
<path stroke-width="1" id="E1-MJMATHI-61" d="M33 157Q33 258 109 349T280 441Q331 441 370 392Q386 422 416 422Q429 422 439 414T449 394Q449 381 412 234T374 68Q374 43 381 35T402 26Q411 27 422 35Q443 55 463 131Q469 151 473 152Q475 153 483 153H487Q506 153 506 144Q506 138 501 117T481 63T449 13Q436 0 417 -8Q409 -10 393 -10Q359 -10 336 5T306 36L300 51Q299 52 296 50Q294 48 292 46Q233 -10 172 -10Q117 -10 75 30T33 157ZM351 328Q351 334 346 350T323 385T277 405Q242 405 210 374T160 293Q131 214 119 129Q119 126 119 118T118 106Q118 61 136 44T179 26Q217 26 254 59T298 110Q300 114 325 217T351 328Z"></path>
<path stroke-width="1" id="E1-MJMATHI-78" d="M52 289Q59 331 106 386T222 442Q257 442 286 424T329 379Q371 442 430 442Q467 442 494 420T522 361Q522 332 508 314T481 292T458 288Q439 288 427 299T415 328Q415 374 465 391Q454 404 425 404Q412 404 406 402Q368 386 350 336Q290 115 290 78Q290 50 306 38T341 26Q378 26 414 59T463 140Q466 150 469 151T485 153H489Q504 153 504 145Q504 144 502 134Q486 77 440 33T333 -11Q263 -11 227 52Q186 -10 133 -10H127Q78 -10 57 16T35 71Q35 103 54 123T99 143Q142 143 142 101Q142 81 130 66T107 46T94 41L91 40Q91 39 97 36T113 29T132 26Q168 26 194 71Q203 87 217 139T245 247T261 313Q266 340 266 352Q266 380 251 392T217 404Q177 404 142 372T93 290Q91 281 88 280T72 278H58Q52 284 52 289Z"></path>
<path stroke-width="1" id="E1-MJMAIN-28" d="M94 250Q94 319 104 381T127 488T164 576T202 643T244 695T277 729T302 750H315H319Q333 750 333 741Q333 738 316 720T275 667T226 581T184 443T167 250T184 58T225 -81T274 -167T316 -220T333 -241Q333 -250 318 -250H315H302L274 -226Q180 -141 137 -14T94 250Z"></path>
<path stroke-width="1" id="E1-MJMATHBI-51" d="M53 245Q53 297 70 356T125 478T216 590T349 671T523 703Q656 703 735 637T815 445Q815 410 808 370T781 277T729 178T643 87T519 14L525 4Q540 -19 553 -25T592 -32Q632 -32 654 -24T680 -7T689 10T704 18Q713 18 717 12T722 0Q722 -8 711 -36T681 -101T624 -166T541 -194Q513 -194 494 -183T465 -157T450 -118T444 -79T443 -41V-7L433 -9Q391 -17 344 -17Q301 -17 263 -10T185 15T118 62T71 138T53 245ZM666 482Q666 529 652 563T614 615T565 640T512 648Q412 648 335 573Q268 506 235 389T201 202Q201 164 210 136T230 95T259 66L262 76Q269 109 302 135T382 162Q401 162 415 159T449 140T484 92L491 78L496 82Q502 86 505 88T515 97T528 107T541 120T555 137T570 156T585 179T599 205T612 235Q629 278 647 351T666 482ZM439 56Q439 58 439 62T435 75T426 92T410 106T383 112Q353 112 332 96T311 63Q311 38 355 38H366Q391 39 415 45T439 56Z"></path>
<path stroke-width="1" id="E1-MJMATHBI-4B" d="M536 0Q522 6 522 18Q522 35 533 57Q539 62 557 62Q595 62 601 65L472 330L365 255L342 160Q318 65 317 64Q317 62 361 62H388Q420 62 420 44Q416 6 403 2L399 0L357 1Q331 2 224 2Q149 2 109 1T65 0Q48 0 43 15Q47 54 60 60Q64 62 113 62H162L302 623Q302 624 258 624H235Q214 624 209 626T199 639Q203 678 216 684Q220 686 239 686Q290 684 403 684Q475 684 512 685T553 686Q576 686 576 668Q572 632 560 626Q555 624 506 624H457L422 481Q386 339 386 337L785 621Q779 624 749 624Q726 624 726 641Q726 645 730 659Q734 675 736 679T747 686L786 685Q812 684 888 684Q908 684 934 685T968 686Q1003 686 1003 669Q1003 646 991 629Q985 624 967 624Q918 624 888 617Q884 617 874 613L865 609Q864 608 732 515T599 420Q599 418 686 242T775 65Q784 62 829 62Q847 62 850 61T860 54Q862 52 862 43Q862 10 845 1Q844 1 842 1T836 0T797 1T694 2Q599 2 573 1L536 0Z"></path>
<path stroke-width="1" id="E1-MJMAIN-22A4" d="M55 642T55 648T59 659T66 666T71 668H708Q723 660 723 648T708 628H409V15Q402 2 391 0Q387 0 384 1T379 3T375 6T373 9T371 13T369 16V628H71Q70 628 67 630T59 637Z"></path>
<path stroke-width="1" id="E1-MJMAIN-29" d="M60 749L64 750Q69 750 74 750H86L114 726Q208 641 251 514T294 250Q294 182 284 119T261 12T224 -76T186 -143T145 -194T113 -227T90 -246Q87 -249 86 -250H74Q66 -250 63 -250T58 -247T55 -238Q56 -237 66 -225Q221 -64 221 250T66 725Q56 737 55 738Q55 746 60 749Z"></path>
</defs>
<g stroke="currentColor" fill="currentColor" stroke-width="0" transform="matrix(1 0 0 -1 0 0)">
 <use xlink:href="#E1-MJMATHI-73" x="0" y="0"></use>
 <use xlink:href="#E1-MJMATHI-6F" x="469" y="0"></use>
 <use xlink:href="#E1-MJMATHI-66" x="955" y="0"></use>
 <use xlink:href="#E1-MJMATHI-74" x="1505" y="0"></use>
 <use xlink:href="#E1-MJMATHI-6D" x="1867" y="0"></use>
 <use xlink:href="#E1-MJMATHI-61" x="2745" y="0"></use>
 <use xlink:href="#E1-MJMATHI-78" x="3275" y="0"></use>
 <use xlink:href="#E1-MJMAIN-28" x="3847" y="0"></use>
 <use xlink:href="#E1-MJMATHBI-51" x="4237" y="0"></use>
<g transform="translate(5106,0)">
 <use xlink:href="#E1-MJMATHBI-4B" x="0" y="0"></use>
 <use transform="scale(0.707)" xlink:href="#E1-MJMAIN-22A4" x="1432" y="583"></use>
</g>
 <use xlink:href="#E1-MJMAIN-29" x="6770" y="0"></use>
</g>
</svg>