<svg xmlns="http://www.w3.org/2000/svg" width="523.8303" height="80" viewBox="0 0 523.8303 80"><path d="M200.1455,34.23c-6.497-6.594-13.0909-12.3152-13.0909-22.3031,0-6.8849,3.7818-9.9879,7.7575-9.9879,5.6243,0,9.0182,4.2667,13.3819,16.8727l.6788-.1939L208.097,2.9091A19.1684,19.1684,0,0,0,197.8182,0c-9.3091,0-17.4546,6.2061-17.4546,18.1333,0,10.0849,6.1092,17.6485,12.3152,23.9516,6.497,6.5939,12.994,12.8,12.994,23.1758,0,7.37-3.394,12.8-8.9213,12.8-5.3333,0-10.7636-4.6545-15.7091-17.4545l-.7757.2909.7757,15.903a32.9783,32.9783,0,0,0,13.9637,3.1031c10.4727,0,17.9394-7.0788,17.9394-20.3637C213.0424,47.8061,206.6425,40.5334,200.1455,34.23Z"/><path d="M376.4364,34.23c-6.497-6.594-13.0909-12.3152-13.0909-22.3031,0-6.8849,3.7818-9.9879,7.7575-9.9879,5.6243,0,9.0182,4.2667,13.2849,16.8727l.6788-.1939-.6788-15.7091A19.1682,19.1682,0,0,0,374.1091,0c-9.406,0-17.5515,6.2061-17.5515,18.1333.0969,10.0849,6.1091,17.6485,12.4122,24.0485,6.4969,6.594,12.9939,12.8,12.9939,23.1758,0,7.37-3.3939,12.8-8.9212,12.8-5.3333,0-10.7637-4.6545-15.7091-17.4545l-.7758.2909.7758,15.903A32.9774,32.9774,0,0,0,371.297,80c10.4727,0,17.9394-7.0788,17.9394-20.3636C389.2364,47.8061,382.9334,40.5334,376.4364,34.23Z"/><path d="M436.0727,20.0727c0-9.1151,1.5515-12.606,4.0728-18.3272V1.5516H428.0243l-12.5091,54.109L403.0061,1.5516H391.5637v.2908c2.4242,5.6243,3.103,9.0182,3.2,18.1334V58.8606c0,8.9212-.7758,12.5091-3.394,19.297v.1939h10.2788v-.1939C397.9637,71.37,396.8,67.6849,396.8,58.8606l-.1939-43.5393,14.1576,60.703h1.5515l14.0606-60.4121V60.0243c0,8.3393-.6788,11.9272-2.6182,18.1333v.097h15.03v-.194c-2.0364-6.206-2.7152-9.7939-2.7152-18.1333Z"/><path d="M462.0606.97h-2.6182l-13.0909,58.57c-1.9394,8.2424-3.6848,13.77-6.6909,18.6182v.1939h10.6667v-.1939c-1.6485-3.7818-3.5879-11.2485-.7757-23.1758l.4322-2.0363H463.93l1.331,6.206c2.0363,8.5333,1.5514,15.3212-.194,19.0061v.1939h16.3878v-.1939c-2.4242-4.0727-4.0726-9.0182-6.206-17.8424ZM450.3955,51.0061l6.5257-30.7394,6.5925,30.7394Z"/><path d="M513.8424,1.5516v.2908C517.43,8.63,518.303,12.3152,518.4,21.1394l.1939,33.9394L492.3152,1.5516h-9.697v.1939a31.2539,31.2539,0,0,1,3.2,12.897V58.8606c0,8.9212-.7758,12.5091-3.394,19.297v.1939h9.9879v-.1939c-3.5879-6.7879-4.4606-10.4728-4.5576-19.297l-.2909-44.703,31.6121,64.4849,1.2606-.291V21.0424c0-8.9212.7758-12.509,3.394-19.2969V1.5516Z"/><path d="M31.9031,53.43H29.8667v5.43c0,8.9212-.7758,12.5091-3.394,19.297v.1939h9.9879v-.1939C32.8728,71.37,32,67.6848,32,58.8606Z"/><path d="M57.8909,1.7455c3.5879,6.7879,4.4606,10.4727,4.4606,19.2969l.194,33.9394L36.2667,1.5516h-9.6v.1939a31.3634,31.3634,0,0,1,3.297,12.897v11.83H31.806l-.0969-12.3152L63.3212,78.5455h1.2607V21.0424c0-8.9212.7757-12.509,3.3939-19.2969V1.5516H57.8909Z"/><path d="M.194,28.994,0,34.0364H.2909c.97-2.1333,1.9394-4.3636,2.9091-4.3636H4.6545V45.77a13.7507,13.7507,0,0,1-.7757,5.2364H8.2424v-.097A13.2617,13.2617,0,0,1,7.4667,45.77v-16H9.0182c.97,0,1.9394,2.23,2.9091,4.3636l.2909-.0969-.1939-5.0424Z"/><path d="M21.9151,29.0909a13.26,13.26,0,0,1,.7758,5.14V39.37H17.1636V34.23a13.262,13.262,0,0,1,.7758-5.14V28.994H13.6727v.0969a13.26,13.26,0,0,1,.7758,5.14V45.6728a13.4722,13.4722,0,0,1-.7758,5.2363l4.2667.097v-.097a14.0336,14.0336,0,0,1-.7758-5.2363V40.0485h5.5273v5.6243a13.4722,13.4722,0,0,1-.7758,5.2363v.097h4.2667v-.097a14.0335,14.0335,0,0,1-.7757-5.2363V34.23a13.2619,13.2619,0,0,1,.7757-5.14V28.994H21.9151Z"/><path d="M34.7151,50.0364h-3.103V39.7576h1.4545c.97,0,2.0364,1.6485,2.5213,2.5212h.3878V36.5576h-.2909c-.5818.97-1.5515,2.5212-2.5212,2.5212H31.7091v-9.406h2.9091c1.0666,0,2.0363,2.6182,3.006,4.2666l.2909-.1939-.3878-4.8485H28.2182v.097a14.6382,14.6382,0,0,1,.7758,4.9454V45.9637a14.2728,14.2728,0,0,1-.7758,4.9454l10.0848-.1939.3879-5.43-.3879-.097C37.2364,47.2243,36.0727,50.0364,34.7151,50.0364Z"/><path d="M264.9212.97H262.303l-13.0909,58.57c-1.9394,8.2424-3.6848,13.77-6.6909,18.6182v.1939h10.7637v-.1939c-1.6485-3.7818-3.5879-11.2485-.7758-23.1758l.4323-2.0363h13.8644l1.3155,6.206c2.0363,8.5333,1.5515,15.3212-.194,19.0061v.1939h16.3879v-.1939c-2.4243-4.0727-4.0727-9.0182-6.2061-17.8424ZM253.3531,51.0061l6.5257-30.7394,6.5158,30.7394Z"/><path d="M94.4485,76.4122H83.3939V39.6606h5.0425c3.3939,0,7.2727,4.8485,8.8242,8.63h.7757V28.897h-.7757c-1.4546,3.394-5.43,8.7273-8.8242,8.7273H83.3939V3.5879H93.4788c3.2,0,7.8545,6.7879,11.3455,13.3818l.5818-.2909L103.8546,1.5516H71.1758v.2908a49.3222,49.3222,0,0,1,2.7151,17.1637V60.8a50.0467,50.0467,0,0,1-2.7151,17.3576v.194h35.6848l.8728-17.4546-.7758-.2909C103.1758,68.6546,99.7818,76.4122,94.4485,76.4122Z"/><path d="M159.1273,1.7455c2.4243,3.7818,3.8788,10.8606,1.4546,22.8848l-6.2061,33.4546-8.3394-37.3334c-2.0364-8.5333-2.5212-15.1272.0969-19.006V1.5516h-15.806v.1939c2.3272,4.0727,4.0727,9.3091,6.0121,17.8424l.3132,1.3887-8.0707,37.0113-7.7577-37.2364c-1.8424-8.4363-2.0363-15.1272.5819-19.006V1.5516h-16.194v.2908c2.5212,4.0728,4.17,9.3091,5.8182,17.8425L123.0546,79.03h2.5212l12-53.9582,12.1451,53.8613h2.5212l11.0546-57.794c1.8424-8.8242,3.2969-14.7394,6.206-19.3939V1.5516H159.1273Z"/><path d="M277.0424,1.6485l-.7757,16.97.6788.1939c3.3939-6.4969,7.0788-15.2242,10.6667-15.2242h3.7817V60.0243c0,8.3393-.5818,11.9272-2.7151,18.1333v.194h14.8364v-.194c-2.1334-6.2061-2.7152-9.794-2.7152-18.1333V3.5879h3.7818c3.5879,0,7.2727,8.7273,10.6667,15.2242l.6788-.1939-.7758-16.97Z"/><path d="M250.57,18.6182l-.7757-16.97H211.6849l-.7758,16.97.6788.1939c3.3939-6.4969,7.0788-15.2242,10.6667-15.2242h3.7818V60.0243c0,8.4363-.5819,11.9272-2.7152,18.1333v.194h14.8364v-.194c-2.1333-6.2061-2.7152-9.794-2.7152-18.1333V3.5879h3.7819c3.5878,0,7.2727,8.7273,10.6666,15.2242Z"/><path d="M341.2363,76.4122H330.1818V39.6606h5.0425c3.3939,0,7.37,4.8485,8.8242,8.63h.7757V28.897h-.7757c-1.4546,3.394-5.43,8.7273-8.8242,8.7273h-5.0425V3.5879H340.17c3.2,0,7.8545,6.7879,11.3455,13.3818l.6788-.2909L350.6424,1.5516H317.8667v.2908a49.3245,49.3245,0,0,1,2.7151,17.1637V60.8a50.049,50.049,0,0,1-2.7151,17.3576h.1939v.194h35.6848l.7758-17.4546-.7758-.2909C349.9636,68.6546,346.57,76.4122,341.2363,76.4122Z"/></svg>